<svg xmlns="http://www.w3.org/2000/svg" viewBox="0 0 64 64">
  <defs><linearGradient id="g" x1="8" y1="6" x2="56" y2="58"><stop stop-color="#67e8f9"/><stop offset=".48" stop-color="#5b7cfa"/><stop offset="1" stop-color="#b86cff"/></linearGradient></defs>
  <rect width="64" height="64" rx="16" fill="#070912"/>
  <path d="M32 8 52 19v18c0 11-7 18-20 23C19 55 12 48 12 37V19L32 8Z" fill="none" stroke="url(#g)" stroke-width="3.5"/>
  <path d="M29 20c-7 1-11 6-11 12s5 12 12 12v-7c-3 0-5-2-5-5s2-5 4-5v-7Zm6 0c7 1 11 6 11 12s-5 12-12 12v-7c3 0 5-2 5-5s-2-5-4-5v-7Z" fill="url(#g)"/>
  <circle cx="32" cy="32" r="3" fill="#fff"/>
</svg>
