<svg xmlns="http://www.w3.org/2000/svg" viewBox="0 0 220 220" fill="none">
  <defs>
    <linearGradient id="g" x1="25" y1="18" x2="198" y2="205" gradientUnits="userSpaceOnUse"><stop stop-color="#67e8f9"/><stop offset=".48" stop-color="#5b7cfa"/><stop offset="1" stop-color="#b86cff"/></linearGradient>
    <filter id="glow" x="-60%" y="-60%" width="220%" height="220%"><feGaussianBlur stdDeviation="5" result="b"/><feMerge><feMergeNode in="b"/><feMergeNode in="SourceGraphic"/></feMerge></filter>
  </defs>
  <g filter="url(#glow)" stroke="url(#g)" stroke-width="7" stroke-linecap="round" stroke-linejoin="round">
    <path d="M110 22 177 61v60c0 42-27 69-67 83-40-14-67-41-67-83V61l67-39Z"/>
    <path d="M104 66c-22 3-38 21-38 44 0 24 17 43 40 45v-25c-9-2-16-10-16-20 0-10 6-18 14-20V66Zm12 0c22 3 38 21 38 44 0 24-17 43-40 45v-25c9-2 16-10 16-20 0-10-6-18-14-20V66Z"/>
    <circle cx="110" cy="110" r="11"/><path d="M110 99V69"/>
  </g>
</svg>
